# xmcd
#
# Track frame offsets: 
#        150
#        17208
#        44952
#        67872
#        91333
#        117056
#        144608
#        171606
#        199029
#        236513
#        259944
#        282963
#        299538
#        324339
#
# Disc length: 4516 seconds
#
# Revision: 3
# Processed by: cddbd v1.5.2PL0 Copyright (c) Steve Scherf et al.
# Submitted via: ExactAudioCopy v1.0b3
#
DISCID=d811a20e
DTITLE=Rronnie Earl and The Broadcasters - Spread The Love
DYEAR=2010
DGENRE=Blues
TTITLE0=Backstroke
TTITLE1=Blues For Dr. Donna
TTITLE2=Chitlins Con Carne
TTITLE3=Cristo Redentor
TTITLE4=Happy
TTITLE5=Patience
TTITLE6=Miracle
TTITLE7=Spann's Groove
TTITLE8=Skyman
TTITLE9=Blues For Slim
TTITLE10=Tommy's Midnight Blues
TTITLE11=Eleventh Step To Heaven
TTITLE12=Ethan's Song
TTITLE13=Blues For Bill
EXTD=
EXTT0=
EXTT1=
EXTT2=
EXTT3=
EXTT4=
EXTT5=
EXTT6=
EXTT7=
EXTT8=
EXTT9=
EXTT10=
EXTT11=
EXTT12=
EXTT13=
PLAYORDER=
